<svg width="150" height="150" viewBox="0 0 150 150" fill="none" xmlns="http://www.w3.org/2000/svg">
<g clip-path="url(#clip0_174_31)">
<rect width="150" height="150" fill="#0091E2"/>
<g clip-path="url(#clip1_174_31)">
<path d="M75 150C116.421 150 150 116.421 150 75C150 33.5786 116.421 0 75 0C33.5786 0 0 33.5786 0 75C0 116.421 33.5786 150 75 150Z" fill="#0091E2"/>
<path d="M135.868 64.9713C135.55 64.7124 132.67 62.5414 126.592 62.5414C124.983 62.5414 123.374 62.6609 121.785 62.9597C120.613 54.8534 113.939 50.9098 113.641 50.7305L112.012 49.7745L110.939 51.328C109.589 53.4193 108.615 55.7098 108.039 58.1397C106.947 62.7605 107.602 67.1025 109.946 70.8071C107.125 72.3806 102.577 72.7789 101.663 72.7988H26.5595C24.593 72.7988 23.004 74.3922 23.004 76.364C22.9245 82.9566 24.0369 89.5094 26.2814 95.7037C28.8637 102.515 32.7172 107.515 37.7228 110.582C43.3242 114.028 52.4415 115.999 62.7904 115.999C67.4583 116.019 72.1262 115.581 76.7146 114.725C83.0908 113.55 89.2285 111.319 94.8698 108.112C99.5178 105.403 103.709 101.978 107.265 97.9344C113.204 91.1824 116.759 83.6537 119.401 76.9814H120.454C126.969 76.9814 130.981 74.3723 133.186 72.1814C134.656 70.7872 135.808 69.0942 136.543 67.2021L137 65.8278L135.868 64.9713ZM33.5117 70.6278H43.5825C44.0592 70.6278 44.4564 70.2295 44.4564 69.7515V60.7688C44.4564 60.2908 44.0592 59.8924 43.5825 59.8725H33.5117C33.035 59.8725 32.6377 60.2709 32.6377 60.7489V69.7515C32.6377 70.2494 33.035 70.6278 33.5117 70.6278ZM47.3962 70.6278H57.467C57.9437 70.6278 58.341 70.2295 58.341 69.7515V60.7688C58.341 60.2908 57.9437 59.8924 57.467 59.8725H47.3962C46.8996 59.8725 46.5024 60.2709 46.5024 60.7688V69.7515C46.5024 70.2494 46.8996 70.6278 47.3962 70.6278ZM61.4595 70.6478H71.5303C72.007 70.6478 72.4042 70.2494 72.4042 69.7714V60.7887C72.4042 60.3107 72.007 59.9124 71.5303 59.8924H61.4595C60.9828 59.8924 60.5855 60.2908 60.5855 60.7688V69.7714C60.5855 70.2494 60.9828 70.6278 61.4595 70.6478ZM75.3838 70.6478H85.4545C85.9312 70.6478 86.3285 70.2494 86.3483 69.7714V60.7887C86.3483 60.2908 85.9511 59.8924 85.4545 59.8924H75.3838C74.907 59.8924 74.5098 60.2908 74.5098 60.7688V69.7714C74.5098 70.2494 74.8872 70.6478 75.3838 70.6478ZM47.3764 57.7015H57.4471C57.9238 57.7015 58.3211 57.3032 58.3211 56.8053V47.8226C58.3211 47.3446 57.9238 46.9462 57.4471 46.9462H47.3764C46.8798 46.9462 46.5024 47.3446 46.4825 47.8226V56.8053C46.5024 57.3032 46.8996 57.7015 47.3764 57.7015ZM61.4595 57.7015H71.5303C72.007 57.7015 72.4042 57.3032 72.4042 56.8053V47.8226C72.4042 47.3446 72.007 46.9462 71.5303 46.9462H61.4595C60.9828 46.9462 60.5855 47.3446 60.5855 47.8226V56.8053C60.5855 57.3032 60.9828 57.7015 61.4595 57.7015ZM75.3838 57.7015H85.4545C85.9511 57.7015 86.3285 57.3032 86.3483 56.8053V47.8226C86.3483 47.3246 85.9511 46.9462 85.4545 46.9462H75.3838C74.907 46.9462 74.5098 47.3446 74.5098 47.8226V56.8053C74.5098 57.3032 74.8872 57.7015 75.3838 57.7015ZM75.3838 44.7752H85.4545C85.9511 44.7752 86.3483 44.3769 86.3483 43.879V34.8764C86.3483 34.3983 85.9511 34 85.4545 34H75.3838C74.907 34 74.5098 34.3983 74.5098 34.8764V43.879C74.5098 44.3769 74.8872 44.7752 75.3838 44.7752ZM89.4073 70.6478H99.4781C99.9548 70.6478 100.352 70.2494 100.352 69.7714V60.7887C100.352 60.2908 99.9548 59.9124 99.4781 59.8924H89.4073C88.9306 59.8924 88.5333 60.2908 88.5333 60.7688V69.7714C88.5333 70.2494 88.9306 70.6478 89.4073 70.6478Z" fill="white"/>
</g>
</g>
<defs>
<clipPath id="clip0_174_31">
<rect width="150" height="150" fill="white"/>
</clipPath>
<clipPath id="clip1_174_31">
<rect width="150" height="150" fill="white"/>
</clipPath>
</defs>
</svg>
