<svg width="150" height="150" viewBox="0 0 150 150" fill="none" xmlns="http://www.w3.org/2000/svg">
<rect width="150" height="150" fill="white"/>
<path d="M52.1915 88.2021V61.3389H53.6429V65.5701C53.8151 65.3856 53.975 65.1888 54.1226 64.9797C55.3403 62.4582 57.911 60.8592 60.7031 60.8961C64.0241 60.7977 66.7301 62.0277 68.3168 64.9797C70.3709 68.7066 70.4816 73.1961 68.6366 77.0214C67.1606 80.3301 63.5075 81.9783 59.5961 81.3756C57.1238 81.1665 54.9221 79.7151 53.7659 77.5257V88.2144L52.1915 88.2021ZM53.6429 70.8345L53.975 73.9833C54.5531 77.5749 56.6687 79.6905 60.002 80.0964C63.2246 80.6253 66.3857 78.8049 67.5296 75.7422C68.8211 72.6549 68.735 69.1617 67.2713 66.1359C66.0536 63.4053 63.1631 61.8063 60.1988 62.2245C57.419 62.4213 55.082 64.3647 54.3563 67.0584C54.0488 68.313 53.8151 69.5676 53.6429 70.8345ZM99.6941 74.4876C99.239 78.399 95.9549 81.3633 92.0189 81.4371C85.9058 81.7446 83.0399 77.6856 82.5848 72.9993C82.265 70.4532 82.6832 67.8702 83.7779 65.5578C85.34 62.2983 88.8332 60.4164 92.4125 60.9207C95.8196 61.2159 98.6486 63.639 99.4604 66.96C99.7679 68.436 100.002 69.9243 100.149 71.4249H84.0854C83.7902 75.6684 86.0657 79.0878 89.3006 79.9119C93.3227 80.9082 96.7667 79.1616 98.0213 75.324C98.3042 74.3523 98.8085 74.217 99.6941 74.4876ZM84.0731 70.0719H98.4272C98.3411 65.5455 95.5244 62.2614 91.6991 62.2245C87.3941 62.163 84.2576 65.3118 84.0731 70.0719ZM102.658 74.586H104.061C104.171 76.7016 105.45 78.5712 107.369 79.4445C109.78 80.5269 112.548 80.4531 114.885 79.2477C116.176 78.6696 116.976 77.3412 116.865 75.9267C116.939 74.5614 116.102 73.3068 114.798 72.864C113.249 72.2859 111.6 71.9661 110.026 71.4618C108.39 70.9944 106.779 70.404 105.229 69.7029C102.683 68.4606 102.535 63.6267 105.414 62.1015C108.402 60.4164 112.056 60.3549 115.094 61.9539C116.951 62.9748 117.984 65.0535 117.677 67.1568H116.471C116.471 67.0953 116.361 67.0461 116.361 66.9846C116.213 63.1347 112.978 61.9293 109.509 62.2737C108.464 62.3844 107.468 62.7042 106.533 63.1716C105.389 63.7005 104.688 64.8936 104.811 66.1482C104.811 67.4028 105.61 68.5221 106.791 68.9403C108.304 69.4938 109.915 69.8505 111.477 70.2933L115.266 71.2896C117.025 71.8677 118.255 73.479 118.341 75.324C118.648 77.3535 117.603 79.3584 115.77 80.2809C112.461 82.1505 107 81.6585 104.565 79.2846C103.347 78.0546 102.646 76.3449 102.658 74.586ZM136.213 67.1568H134.897C134.897 66.9723 134.823 66.8124 134.811 66.6648C134.761 64.623 133.298 62.901 131.293 62.5197C129.46 61.9908 127.504 62.0892 125.733 62.7903C124.294 63.2085 123.298 64.5123 123.285 66.0129C123.236 67.4889 124.233 68.805 125.672 69.1494L131.699 70.6992C132.351 70.8591 132.99 71.0559 133.617 71.2896C135.536 71.9907 136.852 73.7742 136.902 75.816C136.963 77.8578 135.758 79.7274 133.876 80.5269C131.047 81.8184 127.8 81.843 124.946 80.613C122.572 79.5921 121.084 77.1936 121.219 74.5983H122.511C122.99 76.9353 124.602 78.8787 126.803 79.8012C129.005 80.7237 131.514 80.49 133.519 79.1985C134.749 78.5589 135.487 77.2674 135.426 75.8898C135.487 74.5245 134.626 73.2822 133.335 72.8394C131.785 72.2613 130.137 71.9538 128.562 71.4372C126.914 70.9821 125.303 70.3917 123.728 69.7029C121.244 68.4852 121.047 63.6882 123.876 62.163C126.914 60.4041 130.641 60.3549 133.716 62.0523C135.487 63.1101 136.459 65.1027 136.2 67.1445L136.213 67.1568ZM49.793 80.9451C48.7229 81.351 47.5052 80.8959 46.9763 79.875L41.8472 72.7779L41.1092 71.7816L35.156 79.875C34.6517 80.8467 33.5078 81.3018 32.4746 80.9205L40.1375 70.6377L33.0035 61.3389C34.0613 60.9576 35.2421 61.3758 35.8325 62.3352L41.1461 69.5184L46.4966 62.3598C47.0009 61.4004 48.1448 60.9699 49.1534 61.3635L46.3859 65.0412L42.6344 69.9243C42.2285 70.2933 42.1916 70.9206 42.5606 71.3265C42.5852 71.3511 42.6098 71.3757 42.6344 71.4003L49.7807 80.9328L49.793 80.9451ZM82.3511 61.2528V62.655C78.3905 62.3967 74.9588 65.3979 74.7005 69.3585C74.6882 69.6045 74.6759 69.8382 74.6882 70.0842C74.6882 73.356 74.6882 76.6155 74.6882 79.8873V80.9943H73.2737V61.3389H74.6759V65.361C76.3856 62.4336 79.0301 61.3389 82.3511 61.2528ZM14.1107 70.527L14.738 67.4397C16.46 61.3389 23.4464 58.8051 28.2557 62.5812C31.0724 64.7952 31.7735 67.9317 31.6382 71.4618H15.7589C15.5006 77.7717 20.0516 81.5847 25.8818 79.6413C27.8006 78.9402 29.2397 77.3412 29.7194 75.3609C30.0269 74.3646 30.5312 74.2047 31.466 74.4876C31.1462 76.9353 29.7317 79.1001 27.6161 80.367C24.0737 82.2981 19.6949 81.7446 16.7552 78.9771C15.3407 77.3781 14.4797 75.3732 14.3198 73.2453C14.3198 72.9009 14.2091 72.5688 14.123 72.249C14.1107 71.6586 14.0984 71.0805 14.1107 70.527ZM15.7835 70.0965H30.1376C30.0515 65.5209 27.161 62.2737 23.3111 62.2491C19.0307 62.1876 15.9557 65.361 15.7712 70.0719L15.7835 70.0965Z" fill="#293A49"/>
</svg>
