<svg width="150" height="150" viewBox="0 0 150 150" fill="none" xmlns="http://www.w3.org/2000/svg">
<g clip-path="url(#clip0_230_87)">
<rect width="150" height="150" fill="#1E1E1E"/>
<g clip-path="url(#clip1_230_87)">
<path d="M56.5037 131C66.7136 131 75 122.637 75 112.333V93.6667H56.5037C46.2937 93.6667 38.0074 102.029 38.0074 112.333C38.0074 122.637 46.2937 131 56.5037 131Z" fill="#0ACF83"/>
<path d="M38.0074 74.9999C38.0074 64.6959 46.2937 56.3333 56.5037 56.3333H75V93.6666H56.5037C46.2937 93.6666 38.0074 85.3039 38.0074 74.9999Z" fill="#A259FF"/>
<path d="M38.0076 37.6667C38.0076 27.3627 46.294 19 56.5039 19H75.0002V56.3333H56.5039C46.294 56.3333 38.0076 47.9707 38.0076 37.6667Z" fill="#F24E1E"/>
<path d="M75 19H93.4963C103.706 19 111.993 27.3627 111.993 37.6667C111.993 47.9707 103.706 56.3333 93.4963 56.3333H75V19Z" fill="#FF7262"/>
<path d="M111.993 74.9999C111.993 85.3039 103.706 93.6666 93.4963 93.6666C83.2863 93.6666 75 85.3039 75 74.9999C75 64.6959 83.2863 56.3333 93.4963 56.3333C103.706 56.3333 111.993 64.6959 111.993 74.9999Z" fill="#1ABCFE"/>
</g>
</g>
<defs>
<clipPath id="clip0_230_87">
<rect width="150" height="150" fill="white"/>
</clipPath>
<clipPath id="clip1_230_87">
<rect width="74" height="112" fill="white" transform="translate(38 19)"/>
</clipPath>
</defs>
</svg>
