<svg width="150" height="150" viewBox="0 0 150 150" fill="none" xmlns="http://www.w3.org/2000/svg">
<rect width="150" height="150" fill="white"/>
<path d="M130.648 70.3954L80.6031 20.3525C77.7216 17.4697 73.0475 17.4697 70.1634 20.3525L59.7724 30.7461L72.9539 43.9276C76.0176 42.8922 79.5303 43.587 81.9715 46.0295C84.4277 48.4869 85.1163 52.0296 84.0547 55.1045L96.761 67.8095C99.8359 66.7492 103.381 67.4352 105.836 69.8939C109.266 73.3243 109.266 78.8828 105.836 82.3158C102.403 85.7474 96.8446 85.7474 93.4104 82.3158C90.8307 79.7336 90.1921 75.9414 91.5006 72.763L79.6501 60.9137V92.0955C80.4859 92.5097 81.2755 93.0611 81.9715 93.7571C85.402 97.1875 85.402 102.746 81.9715 106.18C78.5411 109.609 72.9789 109.609 69.551 106.18C66.1205 102.745 66.1205 97.1863 69.551 93.7571C70.3992 92.9101 71.3809 92.2689 72.4288 91.8398V60.3673C71.3809 59.9382 70.4017 59.3033 69.551 58.4501C66.9526 55.8529 66.3276 52.0383 67.6599 48.8474L54.6655 35.8505L20.3489 70.1634C17.4661 73.0486 17.4661 77.7227 20.3489 80.6055L70.3967 130.65C73.2783 133.532 77.9511 133.532 80.8364 130.65L130.648 80.8376C133.531 77.9548 133.531 73.2782 130.648 70.3954Z" fill="#F05133"/>
</svg>
