<svg width="40" height="40" viewBox="0 0 40 40" fill="none" xmlns="http://www.w3.org/2000/svg">
<path d="M11.7168 0.140028C9.5888 0.240361 8.13564 0.580028 6.86514 1.07903C5.55047 1.59153 4.43597 2.27903 3.32714 3.39186C2.21847 4.50469 1.53547 5.61986 1.0268 6.93686C0.534469 8.20986 0.200803 9.66436 0.106803 11.7935C0.0128026 13.9227 -0.00803068 14.6072 0.00246931 20.0385C0.0128026 25.4695 0.0368026 26.1504 0.139969 28.284C0.241636 30.4115 0.579969 31.8644 1.07914 33.1352C1.59247 34.45 2.27914 35.564 3.39247 36.6732C4.50564 37.7824 5.61997 38.4637 6.93997 38.9732C8.21197 39.4649 9.6668 39.8 11.7956 39.8932C13.9245 39.9865 14.6096 40.0082 20.0393 39.9977C25.469 39.9874 26.1526 39.9632 28.2856 39.862C30.419 39.7609 31.864 39.42 33.1353 38.9232C34.4501 38.4089 35.565 37.7232 36.6733 36.6097C37.7816 35.496 38.4641 34.38 38.9725 33.0624C39.4653 31.7904 39.8001 30.3357 39.8925 28.2084C39.9858 26.0735 40.0078 25.392 39.9975 19.9617C39.987 14.5312 39.9625 13.8504 39.8613 11.7175C39.7601 9.58469 39.4213 8.13636 38.9225 6.86469C38.4085 5.54986 37.7225 4.43669 36.6098 3.32669C35.497 2.21669 34.38 1.53469 33.063 1.02753C31.79 0.535028 30.3361 0.199528 28.2073 0.107528C26.0785 0.015528 25.3933 -0.00830535 19.9616 0.00236132C14.53 0.0126946 13.85 0.036028 11.7168 0.140028ZM11.9505 36.2952C10.0005 36.2104 8.94164 35.8864 8.23597 35.6152C7.30164 35.2552 6.63597 34.82 5.9328 34.1235C5.22947 33.4272 4.79764 32.7592 4.4328 31.8269C4.1588 31.1212 3.8288 30.0635 3.73764 28.1135C3.63847 26.006 3.61764 25.3732 3.60597 20.0335C3.5943 14.694 3.6148 14.0619 3.70714 11.9535C3.79047 10.0052 4.11647 8.94519 4.38714 8.23986C4.74714 7.30436 5.1808 6.63986 5.8788 5.93719C6.5768 5.23436 7.2428 4.80153 8.17597 4.43669C8.88097 4.16153 9.93847 3.83436 11.8876 3.74153C13.9968 3.64153 14.6288 3.62153 19.9676 3.60986C25.3065 3.59819 25.9401 3.61819 28.0501 3.71119C29.9985 3.79586 31.059 4.11869 31.7635 4.39119C32.6981 4.75119 33.3635 5.18353 34.0661 5.88286C34.769 6.58186 35.2021 7.24553 35.567 8.18069C35.8425 8.88353 36.1698 9.94069 36.2618 11.8912C36.3621 14.0004 36.385 14.6329 36.3945 19.9712C36.4041 25.3095 36.3853 25.9435 36.2928 28.0512C36.2078 30.0012 35.8845 31.0604 35.6128 31.7669C35.2528 32.7009 34.819 33.3669 34.1205 34.0692C33.4221 34.7717 32.757 35.2044 31.8233 35.5692C31.1193 35.844 30.0605 36.172 28.113 36.2649C26.0036 36.364 25.3716 36.3849 20.0308 36.3965C14.69 36.4082 14.0596 36.3865 11.9505 36.2952ZM28.255 9.31069C28.2558 9.78541 28.3973 10.2492 28.6617 10.6435C28.9262 11.0377 29.3015 11.3447 29.7405 11.5256C30.1794 11.7065 30.662 11.7532 31.1275 11.6597C31.5929 11.5663 32.0202 11.3369 32.3552 11.0006C32.6902 10.6643 32.918 10.2361 33.0097 9.77037C33.1015 9.3046 33.053 8.82208 32.8705 8.38386C32.6879 7.94564 32.3795 7.5714 31.9843 7.30846C31.589 7.04552 31.1247 6.90571 30.65 6.90669C30.0136 6.90802 29.4038 7.16201 28.9547 7.61282C28.5056 8.06363 28.2539 8.67435 28.255 9.31069ZM9.7308 20.02C9.74197 25.692 14.3485 30.2795 20.0191 30.2689C25.6901 30.258 30.2808 25.652 30.2701 19.98C30.2593 14.308 25.6518 9.71919 19.9801 9.73036C14.3085 9.74153 9.72014 14.3487 9.7308 20.02ZM13.3333 20.0129C13.3307 18.6943 13.7191 17.4046 14.4495 16.3069C15.1799 15.2091 16.2194 14.3526 17.4365 13.8456C18.6537 13.3386 19.9939 13.2039 21.2876 13.4586C22.5813 13.7132 23.7704 14.3458 24.7046 15.2763C25.6388 16.2068 26.2761 17.3934 26.5359 18.6861C26.7957 19.9788 26.6664 21.3195 26.1642 22.5386C25.6621 23.7578 24.8097 24.8007 23.7148 25.5354C22.62 26.2702 21.3318 26.6637 20.0133 26.6664C19.1378 26.6682 18.2705 26.4976 17.4609 26.1642C16.6514 25.8308 15.9154 25.3412 15.2951 24.7233C14.6748 24.1055 14.1823 23.3715 13.8456 22.5632C13.509 21.755 13.3349 20.8884 13.3333 20.0129Z" fill="white"/>
</svg>
