<svg width="150" height="150" viewBox="0 0 150 150" fill="none" xmlns="http://www.w3.org/2000/svg">
<g clip-path="url(#clip0_149_27)">
<rect width="150" height="150" fill="white"/>
<path d="M0 150V0H150V150H0Z" fill="#FFD600"/>
<path d="M97.9081 112.156C100.778 116.793 103.896 121.235 110.503 121.235C116.051 121.235 118.962 118.492 118.962 114.697C118.962 110.156 115.952 108.543 109.847 105.899L106.501 104.48C96.8423 100.404 90.4186 95.2975 90.4186 84.5106C90.4186 74.5694 98.0698 67.0041 110.026 67.0041C118.539 67.0041 124.656 69.937 129.069 77.6177L118.643 84.2466C116.35 80.1711 113.87 78.5665 110.026 78.5665C106.103 78.5665 103.619 81.0291 103.619 84.2466C103.619 88.2231 106.107 89.8319 111.85 92.2945L115.197 93.7135C126.58 98.5356 133 103.461 133 114.532C133 126.462 123.528 133 110.814 133C98.3767 133 91.3144 126.792 87.383 119.107L97.9081 112.156ZM49.861 112.495C51.9594 116.232 55.1484 119.107 59.735 119.107C64.1225 119.107 66.648 117.383 66.648 110.68V67H80.47V112.792C80.47 126.681 72.3709 133 60.5437 133C49.8568 133 42.1434 125.798 39 119.107L49.861 112.495Z" fill="#000001"/>
</g>
<defs>
<clipPath id="clip0_149_27">
<rect width="150" height="150" fill="white"/>
</clipPath>
</defs>
</svg>
