<svg width="150" height="150" viewBox="0 0 150 150" fill="none" xmlns="http://www.w3.org/2000/svg">
<g clip-path="url(#clip0_174_37)">
<rect width="150" height="150" fill="white"/>
<path d="M74.9771 14.3325L78.2278 20.4382C78.9587 21.5649 79.7504 22.5622 80.683 23.491C83.4172 26.191 85.9657 29.0728 88.3113 32.1165C93.8193 39.3489 97.5344 47.3806 100.188 56.0671C101.779 61.3733 102.643 66.8167 102.707 72.3209C102.974 88.7764 97.3327 102.906 85.9588 114.649C84.1088 116.511 82.1101 118.22 79.9826 119.758C78.8559 119.758 78.323 118.893 77.8586 118.098C77.0129 116.623 76.45 115.003 76.1989 113.321C75.7993 111.33 75.5366 109.339 75.666 107.284V106.355C75.5747 106.157 74.5812 14.8007 74.9771 14.3325Z" fill="#599636"/>
<path d="M74.977 14.131C74.8438 13.8645 74.7106 14.0662 74.5773 14.1957C74.642 15.5279 74.1776 16.7156 73.4506 17.8499C72.6512 18.9766 71.593 19.8407 70.531 20.7695C64.6309 25.8778 59.987 32.0482 56.268 38.9494C51.3196 48.2373 48.7692 58.1913 48.046 68.6706C47.7148 72.4505 49.2412 85.7885 50.4327 89.6369C53.6834 99.8535 59.5226 108.414 67.0861 115.845C68.9437 117.634 70.9307 119.293 72.9862 120.888C73.5838 120.888 73.6485 120.355 73.7856 119.959C74.0476 119.112 74.2473 118.247 74.3832 117.371L75.7155 107.421L74.977 14.131Z" fill="#6CAC48"/>
<path d="M78.2279 123.8C78.3611 122.278 79.092 121.014 79.8875 119.754C79.0882 119.423 78.4943 118.764 78.03 118.03C77.6295 117.334 77.298 116.601 77.0403 115.841C76.1115 113.055 75.9135 110.131 75.6471 107.284V105.56C75.3159 105.826 75.2474 108.079 75.2474 108.414C75.0537 111.424 74.6543 114.416 74.0521 117.371C73.8542 118.566 73.721 119.758 72.9863 120.82C72.9863 120.953 72.9863 121.086 73.051 121.284C74.2463 124.801 74.5736 128.383 74.7754 132.034V133.366C74.7754 134.957 74.7107 134.622 76.0315 135.155C76.5644 135.353 77.1583 135.422 77.6912 135.818C78.0909 135.818 78.1556 135.486 78.1556 135.22L77.9576 133.031V126.926C77.8929 125.86 78.0909 124.801 78.2241 123.804L78.2279 123.8Z" fill="#C2BFBF"/>
</g>
<defs>
<clipPath id="clip0_174_37">
<rect width="150" height="150" fill="white"/>
</clipPath>
</defs>
</svg>
