<svg width="150" height="150" viewBox="0 0 150 150" fill="none" xmlns="http://www.w3.org/2000/svg">
<rect width="150" height="150" fill="#101010"/>
<path d="M94.1134 63.6082H114.319V67.32H106.303V86.8476H102.295V67.32H94.1134V63.6082ZM60.8835 63.6082V67.32H44.6877V73.2912H57.7124V77.0031H44.6877V83.1357H60.8835V86.8479H40.6801V67.32H40.6783V63.6082H60.8835ZM70.9726 63.6178H65.7278L84.5134 86.8573H89.7734L80.3795 75.2455L89.7584 63.6354L84.5134 63.6436L77.7536 71.9998L70.9726 63.6178ZM76.3545 80.218L73.728 76.9676L65.7128 86.8752H70.9726L76.3545 80.218Z" fill="white"/>
<path fill-rule="evenodd" clip-rule="evenodd" d="M40.8204 86.8478L22.0096 63.5986H17.0001V86.8381H21.0077V68.5662L35.7859 86.8478H40.8204Z" fill="white"/>
<path d="M115.219 86.7061C115.08 86.7084 114.941 86.6826 114.812 86.6305C114.683 86.5783 114.566 86.5008 114.467 86.4025C114.258 86.2 114.155 85.9551 114.157 85.6647C114.155 85.3825 114.258 85.1401 114.467 84.9376C114.566 84.8394 114.683 84.7618 114.812 84.7097C114.941 84.6575 115.08 84.6318 115.219 84.6341C115.502 84.6341 115.749 84.7352 115.958 84.9376C116.17 85.1398 116.275 85.3825 116.278 85.6647C116.278 85.8499 116.226 86.0314 116.129 86.1892C116.033 86.3452 115.9 86.4744 115.74 86.5649C115.583 86.6585 115.403 86.7074 115.219 86.7061ZM122.06 76.9158H123.835V83.7259C123.833 84.3516 123.697 84.887 123.431 85.3371C123.162 85.7872 122.79 86.1306 122.312 86.3729C121.837 86.6126 121.28 86.7354 120.648 86.7354C120.069 86.7354 119.551 86.6314 119.089 86.4289C118.627 86.2267 118.261 85.9231 117.992 85.5234C117.72 85.124 117.587 84.6259 117.587 84.0295H119.366C119.369 84.2903 119.428 84.5168 119.542 84.7059C119.654 84.8928 119.819 85.0435 120.015 85.1398C120.218 85.2412 120.452 85.2919 120.715 85.2919C121.001 85.2919 121.245 85.2333 121.443 85.1132C121.641 84.996 121.793 84.8201 121.899 84.586C122.002 84.3545 122.057 84.0667 122.06 83.7259V76.9158ZM131.143 79.5792C131.099 79.1663 130.909 78.844 130.578 78.6151C130.244 78.3836 129.812 78.2687 129.282 78.2687C128.911 78.2687 128.59 78.3247 128.324 78.434C128.058 78.546 127.852 78.6948 127.71 78.8841C127.569 79.0731 127.499 79.2888 127.493 79.5311C127.493 79.7336 127.542 79.9092 127.637 80.0557C127.732 80.2051 127.86 80.3303 128.025 80.4313C128.196 80.5382 128.378 80.6249 128.568 80.6898C128.769 80.759 128.97 80.8176 129.171 80.8656L130.097 81.0918C130.466 81.1754 130.827 81.2913 131.175 81.4382C131.51 81.5761 131.824 81.7608 132.106 81.9868C132.378 82.2043 132.6 82.4765 132.758 82.7856C132.918 83.0974 133 83.4622 133 83.883C133 84.4503 132.853 84.9482 132.557 85.3798C132.261 85.8085 131.835 86.1441 131.276 86.3864C130.719 86.6261 130.046 86.7486 129.253 86.7486C128.487 86.7486 127.819 86.6314 127.257 86.397C126.692 86.1655 126.252 85.8244 125.934 85.3772C125.617 84.9297 125.446 84.3838 125.421 83.7421H127.181C127.205 84.0773 127.314 84.3571 127.499 84.5834C127.686 84.807 127.93 84.9722 128.229 85.0842C128.53 85.1932 128.867 85.2491 129.239 85.2491C129.627 85.2491 129.97 85.1905 130.265 85.0763C130.559 84.9617 130.79 84.8017 130.955 84.5939C131.124 84.3888 131.208 84.1467 131.211 83.8695C131.208 83.6166 131.132 83.4062 130.985 83.241C130.836 83.076 130.629 82.9374 130.366 82.8257C130.065 82.7019 129.754 82.6013 129.437 82.5248L128.313 82.2423C127.501 82.0372 126.858 81.7257 126.388 81.3075C125.915 80.8894 125.682 80.3355 125.682 79.6402C125.682 79.0705 125.839 78.5697 126.157 78.141C126.472 77.7123 126.904 77.3791 127.45 77.1423C127.998 76.9026 128.617 76.7854 129.307 76.7854C130.008 76.7854 130.621 76.9026 131.151 77.1423C131.68 77.3794 132.096 77.7096 132.397 78.1304C132.699 78.5512 132.856 79.033 132.864 79.5792H131.143Z" fill="white"/>
</svg>
