<svg width="150" height="150" viewBox="0 0 150 150" fill="none" xmlns="http://www.w3.org/2000/svg">
<rect width="150" height="150" fill="white"/>
<path d="M75 135C73.323 135 71.7578 134.555 70.3043 133.777L55.4348 124.995C53.1988 123.773 54.3168 123.328 54.9876 123.106C58.0062 122.105 58.5652 121.883 61.6957 120.104C62.0311 119.882 62.4783 119.993 62.8137 120.215L74.2174 126.996C74.6646 127.219 75.2236 127.219 75.559 126.996L120.168 101.318C120.615 101.096 120.839 100.651 120.839 100.095V48.8493C120.839 48.2935 120.615 47.8489 120.168 47.6266L75.559 22.0593C75.1118 21.8369 74.5528 21.8369 74.2174 22.0593L29.6087 47.6266C29.1615 47.8489 28.9379 48.4047 28.9379 48.8493V100.095C28.9379 100.54 29.1615 101.096 29.6087 101.318L41.795 108.321C48.3913 111.656 52.5279 107.765 52.5279 103.875V53.2958C52.5279 52.6288 53.087 51.9619 53.8696 51.9619H59.5714C60.2422 51.9619 60.913 52.5177 60.913 53.2958V103.875C60.913 112.656 56.1056 117.77 47.7205 117.77C45.1491 117.77 43.1366 117.77 37.4348 114.991L25.6957 108.321C22.7888 106.654 21 103.541 21 100.206V48.9605C21 45.6256 22.7888 42.5131 25.6957 40.8457L70.3043 15.1672C73.0994 13.6109 76.9006 13.6109 79.6957 15.1672L124.304 40.8457C127.211 42.5131 129 45.6256 129 48.9605V100.206C129 103.541 127.211 106.654 124.304 108.321L79.6957 134C78.2422 134.667 76.5652 135 75 135ZM88.7516 99.7616C69.1863 99.7616 65.1615 90.8686 65.1615 83.3096C65.1615 82.6426 65.7205 81.9757 66.5031 81.9757H72.3168C72.9876 81.9757 73.5466 82.4203 73.5466 83.0873C74.441 88.9789 77.0124 91.8691 88.8634 91.8691C98.2547 91.8691 102.28 89.757 102.28 84.7547C102.28 81.8645 101.161 79.7524 86.5155 78.3073C74.3292 77.0845 66.7267 74.4166 66.7267 64.7455C66.7267 55.7414 74.3292 50.4056 87.0745 50.4056C101.385 50.4056 108.429 55.2967 109.323 65.9683C109.323 66.3018 109.211 66.6353 108.988 66.9688C108.764 67.1911 108.429 67.4134 108.093 67.4134H102.28C101.72 67.4134 101.161 66.9688 101.05 66.413C99.7081 60.299 96.2422 58.2981 87.0745 58.2981C76.7888 58.2981 75.559 61.8553 75.559 64.5232C75.559 67.7469 77.0124 68.7474 90.8758 70.526C104.627 72.3045 111.112 74.8613 111.112 84.4212C111 94.2035 102.95 99.7616 88.7516 99.7616Z" fill="#539E43"/>
</svg>
