<svg width="150" height="150" viewBox="0 0 150 150" fill="none" xmlns="http://www.w3.org/2000/svg">
<rect width="150" height="150" fill="white"/>
<path d="M74.9999 83.6605C80.8491 83.6605 85.5915 78.9186 85.5915 73.0689C85.5915 67.2192 80.8491 62.4771 74.9999 62.4771C69.1502 62.4771 64.408 67.2192 64.408 73.0689C64.408 78.9186 69.1502 83.6605 74.9999 83.6605Z" fill="#61DAFB"/>
<path d="M75.0001 94.7693C106.388 94.7693 131.833 85.0539 131.833 73.0693C131.833 61.0845 106.388 51.3691 75.0001 51.3691C43.6119 51.3691 18.1667 61.0845 18.1667 73.0693C18.1667 85.0539 43.6119 94.7693 75.0001 94.7693Z" stroke="#61DAFB" stroke-width="4"/>
<path d="M56.2066 83.9194C71.901 111.102 93.0373 128.281 103.416 122.289C113.795 116.296 109.486 89.4022 93.7921 62.2193C78.0979 35.0363 56.9617 17.8579 46.5827 23.8501C36.2038 29.8424 40.5126 56.7363 56.2066 83.9194Z" stroke="#61DAFB" stroke-width="4"/>
<path d="M56.2066 62.2202C40.5126 89.4032 36.2038 116.297 46.5827 122.29C56.9617 128.282 78.0979 111.103 93.7921 83.9203C109.486 56.7373 113.795 29.8434 103.416 23.8511C93.0373 17.8588 71.901 35.0373 56.2066 62.2202Z" stroke="#61DAFB" stroke-width="4"/>
</svg>
