<svg width="150" height="150" viewBox="0 0 150 150" fill="none" xmlns="http://www.w3.org/2000/svg">
<g clip-path="url(#clip0_149_31)">
<rect width="150" height="150" fill="white"/>
<path d="M150 0H0V150H150V0Z" fill="#1976D2"/>
<path d="M90 67H34V80.6H54.0853V142H69.9991V80.6H90V67Z" fill="white"/>
<path d="M138.503 84.0245C138.503 84.0245 130.948 79.0451 122.408 79.0451C113.867 79.0451 110.793 83.0554 110.793 87.3413C110.793 98.4029 142 97.2959 142 119.557C142 153.849 94.4186 138.639 94.4186 138.639V122.189C94.4186 122.189 103.517 128.964 114.429 128.964C125.342 128.964 124.928 121.913 124.928 120.944C124.928 110.714 94 110.714 94 88.0348C94 57.2018 139.062 69.3662 139.062 69.3662L138.503 84.0245Z" fill="white"/>
</g>
<defs>
<clipPath id="clip0_149_31">
<rect width="150" height="150" fill="white"/>
</clipPath>
</defs>
</svg>
